{"title":"Honeymoon in Vegas (1992) BRRip 720p Dual Audio Hindi - English","uid":8229337,"size":1451716346,"categoryP":"video","categoryS":"hd___movies","magnet":"?xt=urn:btih:ee87f40b31c9b718a0dad3a0d76ebe4e0c075d13&amp;dn=Honeymoon+in+Vegas+%281992%29+BRRip+720p+Dual+Audio+Hindi+-+English+&amp;tr=udp%3A%2F%2Ftracker.openbittorrent.com%3A80&amp;tr=udp%3A%2F%2Fopen.demonii.com%3A1337&amp;tr=udp%3A%2F%2Ftracker.coppersurfer.tk%3A6969&amp;tr=udp%3A%2F%2Fexodus.desync.com%3A6969","seeders":0,"leechers":1,"uploader":"Amit.Anil","files":7,"time":1362688048,"description":"$$$$$ FIRST ON NET IN HD HINDI $$$$$\n\nHindi Audio Muxing My Best Friend Bharat Saini\n &lt;a href=&quot;\nhttp://www.imdb.com/title/tt0104438/&quot; rel=&quot;nofollow&quot; target=&quot;_NEW&quot;&gt;\nhttp://www.imdb.com/title/tt0104438/&lt;/a&gt;\n &lt;a href=&quot;\nhttp://en.wikipedia.org/wiki/Honeymoon_in_Vegas&quot; rel=&quot;nofollow&quot; target=&quot;_NEW&quot;&gt;\nhttp://en.wikipedia.org/wiki/Honeymoon_in_Vegas&lt;/a&gt;\n &lt;a href=&quot;\nhttp://img43.imageshack.us/img43/1828/honeymooninvegas5.jpg&quot; rel=&quot;nofollow&quot; target=&quot;_NEW&quot;&gt;\nhttp://img43.imageshack.us/img43/1828/honeymooninvegas5.jpg&lt;/a&gt;\n\nHoneymoon in Vegas (1992) BRRip 720p Dual Audio Hindi - English By~ Amit_Anil\n\nFile size                                : 1.35 GiB\nDuration                                 : 1h 35mn\nOverall bit rate                         : 2 018 Kbps\n\nVideo\nBit rate                                 : 1 722 Kbps\nVideo Resolution                         : 1280 x 696\nWidth                                    : 1280 pixels\nHeight                                   : 696 pixels\nDisplay aspect ratio                     : 1.85:1\nFrame rate                               : 23.976 fps\nStream size                              : 1.15 GiB (85%)\n\nAudio #1\nChannel(s)                               : 2 channels\nStream size                              : 87.7 MiB (6%)\nTitle                                    : Hindi _By~ Amit_Anil\n\nAudio #2\nChannel(s)                               : 2 channels\nStream size                              : 87.7 MiB (6%)\nTitle                                    : English\n\n\n\n &lt;a href=&quot;\nhttp://img16.imageshack.us/img16/5328/snapshot20130308001430.jpg&quot; rel=&quot;nofollow&quot; target=&quot;_NEW&quot;&gt;\nhttp://img16.imageshack.us/img16/5328/snapshot20130308001430.jpg&lt;/a&gt;\n &lt;a href=&quot;\nhttp://img189.imageshack.us/img189/1200/snapshot20130308001313.jpg&quot; rel=&quot;nofollow&quot; target=&quot;_NEW&quot;&gt;\nhttp://img189.imageshack.us/img189/1200/snapshot20130308001313.jpg&lt;/a&gt;\n &lt;a href=&quot;\nhttp://img805.imageshack.us/img805/9131/snapshot20130308001232.jpg&quot; rel=&quot;nofollow&quot; target=&quot;_NEW&quot;&gt;\nhttp://img805.imageshack.us/img805/9131/snapshot20130308001232.jpg&lt;/a&gt;\n &lt;a href=&quot;\nhttp://img811.imageshack.us/img811/4853/snapshot20130308001028.jpg&quot; rel=&quot;nofollow&quot; target=&quot;_NEW&quot;&gt;\nhttp://img811.imageshack.us/img811/4853/snapshot20130308001028.jpg&lt;/a&gt;\n\n\n\nSEED PLEASE\n\nKeep Seeding After Downloading...","torrent":{"xt":"urn:btih:ee87f40b31c9b718a0dad3a0d76ebe4e0c075d13","amp;dn":"Honeymoon+in+Vegas+%281992%29+BRRip+720p+Dual+Audio+Hindi+-+English+","amp;tr":["udp%3A%2F%2Ftracker.openbittorrent.com%3A80","udp%3A%2F%2Fopen.demonii.com%3A1337","udp%3A%2F%2Ftracker.coppersurfer.tk%3A6969","udp%3A%2F%2Fexodus.desync.com%3A6969"],"infoHash":"ee87f40b31c9b718a0dad3a0d76ebe4e0c075d13","infoHashBuffer":{"type":"Buffer","data":[238,135,244,11,49,201,183,24,160,218,211,160,215,110,190,78,12,7,93,19]},"announce":[],"urlList":[]}}